<svg width="512" height="512" viewBox="0 0 512 512" fill="none" xmlns="http://www.w3.org/2000/svg">
<g clip-path="url(#clip0_258_4)">
<rect width="512" height="512" rx="56" fill="black"/>
<path d="M204.659 392.681C198.499 394.955 182.066 394.283 178.911 393.554C184.944 380.434 189.599 374.758 200.295 367.515C182.026 356.8 177.091 348.811 171.497 334.319C159.718 330.262 148.349 324.747 136.774 317.345C120.894 322.615 111.07 325.001 93.2268 318.926C102.2 303.259 106.762 294.062 113.276 276.224C92.1152 266.968 84.5097 257.677 77.126 235.104C95.0334 240.189 106.093 241.199 125.286 241.621C125.286 241.621 88.2807 206.33 89.1536 137.958C90.0264 69.5852 130.899 34.9228 130.899 34.9228C165.871 70.9373 184.341 92.5643 215.909 131.515C221.513 128.807 227.35 127.057 234.381 126.131C221.464 104.935 216.322 94.4344 217.257 78.777C257.883 83.1798 282.933 92.8311 314.815 126.716C346.54 86.1951 366.981 66.0035 407.834 34.1736C407.834 34.1736 442.465 79.6889 433.89 146.643C425.315 213.596 392.535 235.104 392.535 235.104C406.513 231.352 414.663 229.609 427.953 234.21C419.82 248.141 411.932 256.935 394.574 273.593C406.914 287.227 413.141 295.246 420.306 311.677C396.373 317.545 384.561 318.227 366.372 314.764C346.854 325.18 335.124 330.255 320.106 332.104C349.141 394.423 361.492 432.038 364.456 512.103H176.087C176.087 512.103 179.783 474.001 185.602 446.216C191.421 418.43 200.488 400.246 204.659 392.681Z" fill="white"/>
<path d="M234.381 126.131C227.35 127.057 221.513 128.807 215.909 131.515C184.341 92.5643 165.871 70.9373 130.899 34.9228C130.899 34.9228 90.0264 69.5852 89.1536 137.958C88.2807 206.33 125.286 241.621 125.286 241.621C106.093 241.199 95.0334 240.189 77.126 235.104C84.5097 257.677 92.1152 266.968 113.276 276.224C106.762 294.062 102.2 303.259 93.2268 318.926C111.07 325.001 120.894 322.615 136.774 317.345C162.881 334.038 187.938 341.136 219.015 343.554M136.774 317.345C148.349 324.747 159.718 330.262 171.497 334.319C177.091 348.811 182.026 356.8 200.295 367.515C189.599 374.758 184.944 380.434 178.911 393.554C182.066 394.283 198.499 394.955 204.659 392.681C200.488 400.246 191.421 418.43 185.602 446.216C179.783 474.001 176.087 512.103 176.087 512.103H364.456C361.492 432.038 349.141 394.423 320.106 332.104M244.526 125.374C240.853 125.472 237.5 125.721 234.381 126.131C216.1 128.539 205.896 136.516 186.854 152.41C213.332 155.672 227.847 155.379 253.197 151.389M234.381 126.131C221.464 104.935 216.322 94.4344 217.257 78.777C257.883 83.1798 282.933 92.8311 314.815 126.716C318.336 130.458 321.94 134.496 325.658 138.854M312.128 332.777C314.918 332.638 317.559 332.418 320.106 332.104M314.815 126.716C346.54 86.1951 366.981 66.0035 407.834 34.1736C407.834 34.1736 442.465 79.6889 433.89 146.643C425.315 213.596 392.535 235.104 392.535 235.104C406.513 231.352 414.663 229.609 427.953 234.21C419.82 248.141 411.932 256.935 394.574 273.593C406.914 287.227 413.141 295.246 420.306 311.677C396.373 317.545 384.561 318.227 366.372 314.764C346.854 325.18 335.124 330.255 320.106 332.104" stroke="white" stroke-width="4" stroke-linecap="round" stroke-linejoin="round"/>
</g>
<defs>
<clipPath id="clip0_258_4">
<rect width="512" height="512" rx="56" fill="white"/>
</clipPath>
</defs>
</svg>
